<?xml version="1.0" standalone="no"?>
<!DOCTYPE svg PUBLIC "-//W3C//DTD SVG 20010904//EN"
 "http://www.w3.org/TR/2001/REC-SVG-20010904/DTD/svg10.dtd">
<svg version="1.0" xmlns="http://www.w3.org/2000/svg"
 width="933.000000pt" height="933.000000pt" viewBox="0 0 933.000000 933.000000"
 preserveAspectRatio="xMidYMid meet">
<metadata>
Created by potrace 1.14, written by Peter Selinger 2001-2017
</metadata>
<g transform="translate(0.000000,933.000000) scale(0.100000,-0.100000)"
fill="#000000" stroke="none">
<path d="M1175 9310 c-121 -23 -207 -47 -301 -87 -78 -33 -235 -116 -256 -136
-7 -7 -33 -25 -57 -42 -43 -29 -190 -169 -242 -231 -126 -149 -229 -361 -287
-594 l-27 -105 -2 -3425 c-1 -1998 1 -3442 7 -3465 4 -22 11 -53 13 -70 16
-104 68 -256 129 -379 34 -67 101 -180 118 -196 3 -3 18 -23 35 -45 56 -76
200 -211 295 -277 157 -109 328 -185 500 -222 41 -9 89 -19 105 -23 42 -11
6830 -14 6885 -4 25 5 63 12 85 15 109 16 328 93 407 142 21 13 40 24 44 24 9
0 149 96 186 127 115 97 257 262 322 375 68 116 135 287 160 408 9 41 19 89
23 105 4 17 9 1558 10 3425 2 3458 2 3461 -32 3605 -46 197 -154 419 -282 575
-31 39 -153 162 -198 200 -49 42 -195 135 -270 173 -72 37 -252 101 -315 112
-187 35 -115 34 -3575 34 -3246 -1 -3384 -1 -3480 -19z"/>
</g>
</svg>
